<svg width="100" height="100" viewBox="0 0 100 100" fill="none" xmlns="http://www.w3.org/2000/svg">
<circle cx="50" cy="50" r="50" fill="#477CE2"/>
<path d="M29.0398 24.7689C28.6666 24.754 28.3163 24.9483 28.1313 25.2727C27.9463 25.597 27.9575 25.9975 28.1602 26.311L43.4609 49.9748L28.1607 73.5995C27.9606 73.9084 27.9464 74.3023 28.1237 74.6249C28.3011 74.9474 28.6413 75.1465 29.0094 75.143C32.2523 75.1125 35.4924 75.0973 38.7296 75.0973C39.0688 75.0973 39.3849 74.9253 39.5692 74.6406L55.1788 50.5185C55.3927 50.188 55.3928 49.7629 55.1791 49.4323L39.6287 25.3757C39.4444 25.0907 39.1282 24.9185 38.7888 24.9185C36.201 24.9185 33.6131 24.8951 31.0253 24.8482C30.9888 24.8453 30.9437 24.8432 30.9147 24.8418L30.9139 24.8418C30.8272 24.8378 30.6842 24.8322 30.5042 24.8252C30.3984 24.8212 30.2789 24.8166 30.1484 24.8117C29.8303 24.7996 29.4471 24.7851 29.0398 24.7689Z" fill="#4B4B4B" stroke="#4B4B4B" stroke-width="2" stroke-linejoin="round"/>
<path d="M71.9999 25L60.2261 42.6607L54.3392 33.8304L54.8298 33.3398L61.6979 25H71.9999Z" fill="white" stroke="white" stroke-linejoin="round"/>
<path d="M71.9999 74.9106L60.2261 58.0178L54.3392 66.4642L54.8298 66.9335L61.6979 74.9106H71.9999Z" fill="white" stroke="white" stroke-linejoin="round"/>
</svg>
