<svg width="130" height="130" viewBox="0 0 130 130" fill="none" xmlns="http://www.w3.org/2000/svg">
<circle cx="65" cy="65" r="57.5" fill="#4B4B4B" stroke="white" stroke-width="15"/>
<path d="M44.0398 39.7689C43.6666 39.754 43.3163 39.9483 43.1313 40.2727C42.9463 40.597 42.9575 40.9975 43.1602 41.311L58.4609 64.9748L43.1607 88.5995C42.9606 88.9084 42.9464 89.3023 43.1237 89.6249C43.3011 89.9475 43.6413 90.1465 44.0094 90.143C47.2523 90.1125 50.4924 90.0973 53.7296 90.0973C54.0688 90.0973 54.3849 89.9253 54.5692 89.6406L70.1788 65.5185C70.3927 65.188 70.3928 64.7629 70.1791 64.4323L54.6287 40.3757C54.4444 40.0907 54.1282 39.9185 53.7888 39.9185C51.201 39.9185 48.6131 39.8951 46.0253 39.8482C45.9888 39.8453 45.9436 39.8432 45.9147 39.8418L45.9139 39.8418C45.8272 39.8378 45.6842 39.8322 45.5042 39.8252C45.3984 39.8212 45.2789 39.8166 45.1484 39.8117C44.8303 39.7996 44.4471 39.7851 44.0398 39.7689Z" fill="white" stroke="white" stroke-width="2" stroke-linejoin="round"/>
<path d="M86.9999 40L75.2261 57.6607L69.3392 48.8304L69.8298 48.3398L76.6979 40H86.9999Z" fill="white" stroke="white" stroke-linejoin="round"/>
<path d="M86.9999 89.9106L75.2261 73.0178L69.3392 81.4642L69.8298 81.9335L76.6979 89.9106H86.9999Z" fill="white" stroke="white" stroke-linejoin="round"/>
</svg>
